<svg width="177" height="159" viewBox="0 0 177 159" fill="none" xmlns="http://www.w3.org/2000/svg">
<path d="M172.386 32.8832C169.65 26.5486 165.705 20.8083 160.772 15.9836C155.836 11.1445 150.015 7.29888 143.628 4.65596C137.004 1.90453 129.9 0.496188 122.728 0.512696C112.666 0.512696 102.848 3.26807 94.3169 8.47266C92.2759 9.71768 90.3369 11.0852 88.5 12.5751C86.6631 11.0852 84.7241 9.71768 82.6831 8.47266C74.1517 3.26807 64.3344 0.512696 54.2722 0.512696C47.0266 0.512696 40.0055 1.90059 33.3722 4.65596C26.9634 7.30928 21.1873 11.126 16.2276 15.9836C11.2883 20.8029 7.34264 26.5446 4.61426 32.8832C1.77725 39.4757 0.328125 46.4764 0.328125 53.6811C0.328125 60.4777 1.71602 67.5601 4.47139 74.7648C6.77774 80.7858 10.0842 87.0313 14.3091 93.3381C21.0036 103.319 30.2086 113.728 41.6383 124.28C60.5789 141.771 79.3358 153.854 80.1318 154.344L84.969 157.446C87.1121 158.814 89.8675 158.814 92.0105 157.446L96.8478 154.344C97.6438 153.834 116.38 141.771 135.341 124.28C146.771 113.728 155.976 103.319 162.671 93.3381C166.895 87.0313 170.222 80.7858 172.508 74.7648C175.264 67.5601 176.651 60.4777 176.651 53.6811C176.672 46.4764 175.223 39.4757 172.386 32.8832V32.8832Z" fill="#9580FF"/>
</svg>
